<?xml version="1.0" encoding="UTF-8" standalone="no"?>
<svg
   xmlns:dc="http://purl.org/dc/elements/1.1/"
   xmlns:cc="http://creativecommons.org/ns#"
   xmlns:rdf="http://www.w3.org/1999/02/22-rdf-syntax-ns#"
   xmlns:svg="http://www.w3.org/2000/svg"
   xmlns="http://www.w3.org/2000/svg"
   xmlns:sodipodi="http://sodipodi.sourceforge.net/DTD/sodipodi-0.dtd"
   xmlns:inkscape="http://www.inkscape.org/namespaces/inkscape"
   width="77.37674mm"
   height="9.9034042mm"
   viewBox="0 0 77.37674 9.9034042"
   version="1.1"
   id="svg160"
   sodipodi:docname="drawing.svg"
   inkscape:version="1.0.1 (3bc2e813f5, 2020-09-07)">
  <defs
     id="defs154">
    <rect
       x="56.542755"
       y="120.32575"
       width="92.054367"
       height="19.652056"
       id="rect214" />
  </defs>
  <sodipodi:namedview
     id="base"
     pagecolor="#ffffff"
     bordercolor="#666666"
     borderopacity="1.0"
     inkscape:pageopacity="0.0"
     inkscape:pageshadow="2"
     inkscape:zoom="2.3022401"
     inkscape:cx="194.21103"
     inkscape:cy="74.409309"
     inkscape:document-units="mm"
     inkscape:current-layer="layer1"
     inkscape:document-rotation="0"
     showgrid="false"
     inkscape:window-width="1755"
     inkscape:window-height="997"
     inkscape:window-x="143"
     inkscape:window-y="87"
     inkscape:window-maximized="0" />
  <metadata
     id="metadata157">
    <rdf:RDF>
      <cc:Work
         rdf:about="">
        <dc:format>image/svg+xml</dc:format>
        <dc:type
           rdf:resource="http://purl.org/dc/dcmitype/StillImage" />
      </cc:Work>
    </rdf:RDF>
  </metadata>
  <g
     inkscape:label="Layer 1"
     inkscape:groupmode="layer"
     id="layer1"
     transform="translate(-32.325404,-128.4792)">
    <g
       id="g117"
       transform="matrix(0.01868603,0,0,0.01868603,32.302215,128.4792)">
      <g
         id="g101">
        <path
           d="m 278.338,395.966 9.01,22.134 c 9.651,23.707 -1.615,51.251 -25.115,61.398 l -43.532,18.797 c -18.32,7.911 -38.922,3.421 -52.297,-9.952 -3.623,-3.623 -6.713,-7.894 -9.087,-12.75 l -10.655,-21.795 -33.457,-69.718 33.457,-13.595 33.698,68.513 9.995,20.444 c 2.498,5.11 8.545,7.347 13.767,5.091 l 43.533,-18.796 c 5.27,-2.276 7.797,-8.454 5.632,-13.771 l -8.633,-21.206 -30.476,-69.968 41.039,-15.917 z"
           fill="#efe2dd"
           id="path79" />
        <path
           d="m 229.203,112.069 -70.086,6.915 -117.13,266.7 -11.585,22.52 65.002,70.378 25.853,-13.629 266.74,-117.149 25.951,-50.99 z"
           fill="#f9f3f1"
           id="path81" />
        <g
           id="g95">
          <g
             id="g85">
            <path
               d="m 211.707,56.819 -29.09,8.665 -23.5,53.5 0.12,0.05 228.76,228.77 53.46,-23.481 18.952,-18.801 z"
               fill="#faf7f7"
               id="path83" />
          </g>
          <path
             d="m 93.048,470.849 11.584,-22.521 117.13,-266.7 23.5,-53.499 -16.059,-16.06 -70.086,6.915 -117.13,266.7 -11.585,22.52 65.002,70.378 3.218,-1.697 z"
             fill="#efe2dd"
             id="path87" />
          <path
             d="m 251.928,97.04 -40.221,-40.221 -29.09,8.664 -23.5,53.5 0.12,0.05 62.545,62.548 c 7.142,-16.259 28.396,-20.253 40.952,-7.696 l 159.069,159.069 19.653,-8.632 18.952,-18.802 z"
             fill="#efe2dd"
             id="path89" />
          <path
             d="M 443.23,326.096 180.845,63.711 c -8.92,-8.92 -8.92,-23.382 0,-32.301 l 3.301,-3.301 c 8.92,-8.92 23.382,-8.92 32.301,0 l 262.385,262.385 c 8.92,8.92 8.92,23.382 0,32.301 l -3.301,3.301 c -8.92,8.92 -23.382,8.92 -32.301,0 z"
             fill="#f37c7c"
             id="path91" />
          <path
             d="m 242.748,115.909 19.95,-19.95 c 4.158,-4.158 9.522,-6.352 14.966,-6.633 L 216.447,28.11 c -8.92,-8.92 -23.382,-8.92 -32.301,0 l -3.301,3.301 c -8.92,8.92 -8.92,23.382 0,32.301 l 57.795,57.795 c 1.05,-2.015 2.417,-3.907 4.108,-5.598 z"
             fill="#ee6161"
             id="path93" />
        </g>
        <path
           d="M 83.356,493.268 13.673,423.585 c -6.591,-6.591 -6.591,-17.278 0,-23.869 l 9.24,-9.24 c 6.591,-6.591 17.278,-6.591 23.869,0 l 69.683,69.683 c 6.591,6.591 6.591,17.278 0,23.869 l -9.24,9.24 c -6.591,6.591 -17.278,6.591 -23.869,0 z"
           fill="#f37c7c"
           id="path97" />
        <path
           d="m 64.387,446.793 c -6.591,-6.591 -6.591,-17.278 0,-23.869 l 7.422,-7.422 -25.026,-25.026 c -6.591,-6.591 -17.278,-6.591 -23.869,0 l -9.24,9.24 c -6.591,6.591 -6.591,17.278 0,23.869 l 69.683,69.683 c 6.591,6.591 17.278,6.591 23.869,0 l 1.818,-1.818 z"
           fill="#ee6161"
           id="path99" />
      </g>
      <g
         id="g115">
        <path
           d="m 74.37,311.951 c 0.981,0.431 2.004,0.635 3.012,0.635 2.885,0 5.636,-1.675 6.871,-4.486 l 77.342,-176.099 17.777,17.777 c 1.465,1.464 3.385,2.197 5.304,2.197 1.919,0 3.839,-0.732 5.304,-2.197 2.929,-2.929 2.929,-7.678 0,-10.606 l -21.91,-21.91 17.004,-38.717 203.816,203.819 c 1.465,1.464 3.385,2.197 5.304,2.197 1.919,0 3.839,-0.732 5.304,-2.197 2.929,-2.929 2.929,-7.678 0,-10.606 L 186.149,58.408 c -2.897,-2.897 -4.493,-6.75 -4.493,-10.848 0,-4.098 1.595,-7.95 4.493,-10.848 l 3.3,-3.301 c 5.981,-5.98 15.714,-5.982 21.695,0 l 19.277,19.278 c 2.929,2.929 7.677,2.929 10.607,0 2.929,-2.929 2.929,-7.678 0,-10.606 L 221.75,22.805 c -11.828,-11.829 -31.078,-11.83 -42.908,0 l -3.3,3.301 c -5.731,5.73 -8.887,13.349 -8.887,21.454 0,7.208 2.501,14.028 7.085,19.481 L 70.518,302.068 c -1.665,3.793 0.059,8.217 3.852,9.883 z"
           id="path103" />
        <path
           d="m 263.629,64.684 c -2.93,-2.929 -7.678,-2.929 -10.607,0 -2.929,2.929 -2.929,7.678 0,10.606 L 473.53,295.797 c 2.897,2.897 4.492,6.75 4.492,10.847 0,4.097 -1.596,7.95 -4.493,10.848 l -3.301,3.301 c -2.897,2.897 -6.75,4.493 -10.847,4.493 -4.099,0 -7.95,-1.596 -10.848,-4.493 l -26.346,-26.345 c -2.931,-2.93 -7.679,-2.928 -10.607,0 -2.929,2.929 -2.929,7.678 0,10.606 l 16.816,16.815 -38.716,17.004 -176.233,-176.232 c -2.931,-2.93 -7.679,-2.929 -10.607,0 -2.928,2.929 -2.929,7.678 0,10.606 l 172.1,172.1 -252.082,110.714 c -0.356,-0.406 -0.702,-0.818 -1.089,-1.206 L 52.085,385.172 c -0.387,-0.387 -0.788,-0.753 -1.196,-1.111 l 20.22,-46.037 c 1.665,-3.792 -0.059,-8.217 -3.852,-9.883 -3.79,-1.665 -8.216,0.058 -9.883,3.851 l -20.268,46.146 c -0.747,-0.068 -1.5,-0.106 -2.259,-0.106 -6.512,0 -12.634,2.536 -17.238,7.14 l -9.24,9.24 c -9.504,9.504 -9.504,24.97 0,34.475 l 69.683,69.683 h 10e-4 c 4.604,4.604 10.727,7.14 17.237,7.14 6.512,0 12.634,-2.536 17.238,-7.14 l 9.24,-9.24 c 5.325,-5.325 7.662,-12.521 7.021,-19.492 l 14.297,-6.279 7.493,15.328 c 2.69,5.502 6.23,10.468 10.521,14.759 10.536,10.534 24.445,16.092 38.661,16.092 7.364,0 14.813,-1.493 21.911,-4.559 l 43.532,-18.797 c 27.219,-11.752 40.268,-43.653 29.089,-71.112 L 288.034,399.896 439.9,333.197 c 5.616,4.711 12.545,7.073 19.48,7.073 7.77,0 15.539,-2.958 21.454,-8.873 l 3.301,-3.301 c 5.73,-5.73 8.886,-13.35 8.886,-21.454 0,-8.104 -3.155,-15.724 -8.886,-21.454 z m -152.467,414.04 -9.24,9.24 c -1.771,1.771 -4.126,2.747 -6.631,2.747 -2.505,0 -4.86,-0.976 -6.632,-2.747 H 88.66 L 18.977,418.281 c -3.656,-3.657 -3.656,-9.606 0,-13.262 l 9.24,-9.24 c 1.771,-1.771 4.126,-2.747 6.631,-2.747 2.505,0 4.86,0.976 6.631,2.747 l 69.683,69.683 c 3.656,3.656 3.656,9.606 0,13.262 z m 135.179,-43.931 c 0.627,1.541 -0.134,3.399 -1.659,4.058 l -43.533,18.796 c -1.54,0.667 -3.32,0.005 -4.056,-1.5 l -6.563,-13.426 50.084,-21.997 z m 34.061,-13.865 c 8.124,19.957 -1.359,43.143 -21.142,51.684 l -43.533,18.797 c -15.122,6.531 -32.402,3.246 -44.02,-8.369 -3.116,-3.117 -5.691,-6.731 -7.652,-10.742 l -7.223,-14.776 19.952,-8.763 6.832,13.977 c 3.138,6.418 9.559,10.178 16.281,10.178 2.406,0 4.851,-0.481 7.197,-1.495 l 43.533,-18.796 c 8.987,-3.882 13.297,-14.417 9.605,-23.484 l -5.881,-14.447 19.944,-8.759 z"
           id="path105" />
        <path
           d="m 374.982,141.014 c 1.919,0 3.839,-0.732 5.304,-2.197 l 8.263,-8.263 c 2.929,-2.929 2.929,-7.678 0,-10.606 -2.93,-2.929 -7.678,-2.929 -10.607,0 l -8.263,8.263 c -2.929,2.929 -2.929,7.678 0,10.606 1.464,1.465 3.384,2.197 5.303,2.197 z"
           id="path107" />
        <path
           d="m 414.319,100.122 c 1.919,0 3.839,-0.732 5.304,-2.197 l 34.983,-34.984 c 2.929,-2.929 2.929,-7.678 0,-10.606 -2.93,-2.929 -7.678,-2.929 -10.607,0 l -34.983,34.984 c -2.929,2.929 -2.929,7.678 0,10.606 1.464,1.465 3.384,2.197 5.303,2.197 z"
           id="path109" />
        <path
           d="m 333.456,64.296 c 0.202,0.016 0.402,0.024 0.602,0.024 3.873,0 7.156,-2.979 7.469,-6.906 l 3.919,-49.319 c 0.328,-4.129 -2.753,-7.743 -6.883,-8.071 -4.125,-0.327 -7.741,2.754 -8.07,6.882 l -3.919,49.319 c -0.328,4.13 2.753,7.743 6.882,8.071 z"
           id="path111" />
        <path
           d="m 508.473,169.932 c -0.328,-4.128 -3.938,-7.216 -8.07,-6.882 l -49.319,3.919 c -4.13,0.328 -7.211,3.941 -6.883,8.071 0.313,3.927 3.596,6.906 7.469,6.906 0.198,0 0.4,-0.008 0.602,-0.024 l 49.319,-3.919 c 4.129,-0.328 7.21,-3.941 6.882,-8.071 z"
           id="path113" />
      </g>
    </g>
    <text
       xml:space="preserve"
       id="text212"
       style="font-style:normal;font-weight:normal;font-size:10.5833px;line-height:1.25;font-family:sans-serif;white-space:pre;shape-inside:url(#rect214);fill:#f9f3f1;fill-opacity:1;stroke:none;"
       transform="translate(-12.986446,6.435761)"><tspan
         x="56.542969"
         y="129.85913"><tspan
           style="font-style:normal;font-variant:normal;font-weight:bold;font-stretch:normal;font-family:Arial;-inkscape-font-specification:'Arial Bold';fill:#f9f3f1;fill-opacity:1">Proper Alerts</tspan></tspan></text>
  </g>
</svg>
