<svg id="Capa_1" enable-background="new 0 0 509.739 509.739" height="36" viewBox="0 0 509.739 509.739" width="36" xmlns="http://www.w3.org/2000/svg"><g><g><path d="m278.338 395.966 9.01 22.134c9.651 23.707-1.615 51.251-25.115 61.398l-43.532 18.797c-18.32 7.911-38.922 3.421-52.297-9.952-3.623-3.623-6.713-7.894-9.087-12.75l-10.655-21.795-33.457-69.718 33.457-13.595 33.698 68.513 9.995 20.444c2.498 5.11 8.545 7.347 13.767 5.091l43.533-18.796c5.27-2.276 7.797-8.454 5.632-13.771l-8.633-21.206-30.476-69.968 41.039-15.917z" fill="#efe2dd"/><path d="m229.203 112.069-70.086 6.915-117.13 266.7-11.585 22.52 65.002 70.378 25.853-13.629 266.74-117.149 25.951-50.99z" fill="#f9f3f1"/><g><g><path d="m211.707 56.819-29.09 8.665-23.5 53.5.12.05 228.76 228.77 53.46-23.481 18.952-18.801z" fill="#faf7f7"/></g><path d="m93.048 470.849 11.584-22.521 117.13-266.7 23.5-53.499-16.059-16.06-70.086 6.915-117.13 266.7-11.585 22.52 65.002 70.378 3.218-1.697z" fill="#efe2dd"/><path d="m251.928 97.04-40.221-40.221-29.09 8.664-23.5 53.5.12.05 62.545 62.548c7.142-16.259 28.396-20.253 40.952-7.696l159.069 159.069 19.653-8.632 18.952-18.802z" fill="#efe2dd"/><path d="m443.23 326.096-262.385-262.385c-8.92-8.92-8.92-23.382 0-32.301l3.301-3.301c8.92-8.92 23.382-8.92 32.301 0l262.385 262.385c8.92 8.92 8.92 23.382 0 32.301l-3.301 3.301c-8.92 8.92-23.382 8.92-32.301 0z" fill="#f37c7c"/><path d="m242.748 115.909 19.95-19.95c4.158-4.158 9.522-6.352 14.966-6.633l-61.217-61.216c-8.92-8.92-23.382-8.92-32.301 0l-3.301 3.301c-8.92 8.92-8.92 23.382 0 32.301l57.795 57.795c1.05-2.015 2.417-3.907 4.108-5.598z" fill="#ee6161"/></g><path d="m83.356 493.268-69.683-69.683c-6.591-6.591-6.591-17.278 0-23.869l9.24-9.24c6.591-6.591 17.278-6.591 23.869 0l69.683 69.683c6.591 6.591 6.591 17.278 0 23.869l-9.24 9.24c-6.591 6.591-17.278 6.591-23.869 0z" fill="#f37c7c"/><path d="m64.387 446.793c-6.591-6.591-6.591-17.278 0-23.869l7.422-7.422-25.026-25.026c-6.591-6.591-17.278-6.591-23.869 0l-9.24 9.24c-6.591 6.591-6.591 17.278 0 23.869l69.683 69.683c6.591 6.591 17.278 6.591 23.869 0l1.818-1.818z" fill="#ee6161"/></g><g><path d="m74.37 311.951c.981.431 2.004.635 3.012.635 2.885 0 5.636-1.675 6.871-4.486l77.342-176.099 17.777 17.777c1.465 1.464 3.385 2.197 5.304 2.197s3.839-.732 5.304-2.197c2.929-2.929 2.929-7.678 0-10.606l-21.91-21.91 17.004-38.717 203.816 203.819c1.465 1.464 3.385 2.197 5.304 2.197s3.839-.732 5.304-2.197c2.929-2.929 2.929-7.678 0-10.606l-213.349-213.35c-2.897-2.897-4.493-6.75-4.493-10.848s1.595-7.95 4.493-10.848l3.3-3.301c5.981-5.98 15.714-5.982 21.695 0l19.277 19.278c2.929 2.929 7.677 2.929 10.607 0 2.929-2.929 2.929-7.678 0-10.606l-19.278-19.278c-11.828-11.829-31.078-11.83-42.908 0l-3.3 3.301c-5.731 5.73-8.887 13.349-8.887 21.454 0 7.208 2.501 14.028 7.085 19.481l-103.222 235.027c-1.665 3.793.059 8.217 3.852 9.883z"/><path d="m263.629 64.684c-2.93-2.929-7.678-2.929-10.607 0s-2.929 7.678 0 10.606l220.508 220.507c2.897 2.897 4.492 6.75 4.492 10.847s-1.596 7.95-4.493 10.848l-3.301 3.301c-2.897 2.897-6.75 4.493-10.847 4.493-4.099 0-7.95-1.596-10.848-4.493l-26.346-26.345c-2.931-2.93-7.679-2.928-10.607 0-2.929 2.929-2.929 7.678 0 10.606l16.816 16.815-38.716 17.004-176.233-176.232c-2.931-2.93-7.679-2.929-10.607 0s-2.929 7.678 0 10.606l172.1 172.1-252.082 110.714c-.356-.406-.702-.818-1.089-1.206l-69.684-69.683c-.387-.387-.788-.753-1.196-1.111l20.22-46.037c1.665-3.792-.059-8.217-3.852-9.883-3.79-1.665-8.216.058-9.883 3.851l-20.268 46.146c-.747-.068-1.5-.106-2.259-.106-6.512 0-12.634 2.536-17.238 7.14l-9.24 9.24c-9.504 9.504-9.504 24.97 0 34.475l69.683 69.683h.001c4.604 4.604 10.727 7.14 17.237 7.14 6.512 0 12.634-2.536 17.238-7.14l9.24-9.24c5.325-5.325 7.662-12.521 7.021-19.492l14.297-6.279 7.493 15.328c2.69 5.502 6.23 10.468 10.521 14.759 10.536 10.534 24.445 16.092 38.661 16.092 7.364 0 14.813-1.493 21.911-4.559l43.532-18.797c27.219-11.752 40.268-43.653 29.089-71.112l-6.259-15.374 151.866-66.699c5.616 4.711 12.545 7.073 19.48 7.073 7.77 0 15.539-2.958 21.454-8.873l3.301-3.301c5.73-5.73 8.886-13.35 8.886-21.454s-3.155-15.724-8.886-21.454zm-152.467 414.04-9.24 9.24c-1.771 1.771-4.126 2.747-6.631 2.747s-4.86-.976-6.632-2.747h.001l-69.683-69.683c-3.656-3.657-3.656-9.606 0-13.262l9.24-9.24c1.771-1.771 4.126-2.747 6.631-2.747s4.86.976 6.631 2.747l69.683 69.683c3.656 3.656 3.656 9.606 0 13.262zm135.179-43.931c.627 1.541-.134 3.399-1.659 4.058l-43.533 18.796c-1.54.667-3.32.005-4.056-1.5l-6.563-13.426 50.084-21.997zm34.061-13.865c8.124 19.957-1.359 43.143-21.142 51.684l-43.533 18.797c-15.122 6.531-32.402 3.246-44.02-8.369-3.116-3.117-5.691-6.731-7.652-10.742l-7.223-14.776 19.952-8.763 6.832 13.977c3.138 6.418 9.559 10.178 16.281 10.178 2.406 0 4.851-.481 7.197-1.495l43.533-18.796c8.987-3.882 13.297-14.417 9.605-23.484l-5.881-14.447 19.944-8.759z"/><path d="m374.982 141.014c1.919 0 3.839-.732 5.304-2.197l8.263-8.263c2.929-2.929 2.929-7.678 0-10.606-2.93-2.929-7.678-2.929-10.607 0l-8.263 8.263c-2.929 2.929-2.929 7.678 0 10.606 1.464 1.465 3.384 2.197 5.303 2.197z"/><path d="m414.319 100.122c1.919 0 3.839-.732 5.304-2.197l34.983-34.984c2.929-2.929 2.929-7.678 0-10.606-2.93-2.929-7.678-2.929-10.607 0l-34.983 34.984c-2.929 2.929-2.929 7.678 0 10.606 1.464 1.465 3.384 2.197 5.303 2.197z"/><path d="m333.456 64.296c.202.016.402.024.602.024 3.873 0 7.156-2.979 7.469-6.906l3.919-49.319c.328-4.129-2.753-7.743-6.883-8.071-4.125-.327-7.741 2.754-8.07 6.882l-3.919 49.319c-.328 4.13 2.753 7.743 6.882 8.071z"/><path d="m508.473 169.932c-.328-4.128-3.938-7.216-8.07-6.882l-49.319 3.919c-4.13.328-7.211 3.941-6.883 8.071.313 3.927 3.596 6.906 7.469 6.906.198 0 .4-.008.602-.024l49.319-3.919c4.129-.328 7.21-3.941 6.882-8.071z"/></g></g></svg>